ply
format ascii 1.0
comment Created by Blender 3.3.0 - www.blender.org
element vertex 50
property float x
property float y
property float z
property float nx
property float ny
property float nz
element face 96
property list uchar uint vertex_indices
end_header
0.436305 0.991893 0.112882 0.838690 0.396511 0.373334
0.000000 1.114805 0.547958 0.000000 -0.453927 0.891039
0.000000 0.974181 0.584305 0.000000 0.164824 0.986323
-0.439522 1.114805 0.061597 -0.877744 -0.433559 -0.203941
0.000000 1.009604 -0.358541 0.000000 0.771162 -0.636639
-0.436305 0.991893 0.112882 -0.838689 0.396512 0.373335
0.000000 0.491918 0.629326 0.000000 -0.219764 0.975553
0.000000 1.172718 -1.815453 -0.000000 0.789919 -0.613211
0.355437 0.135855 -1.444716 0.468515 -0.634543 -0.614694
-0.355437 0.135855 -1.444716 -0.468515 -0.634543 -0.614694
-0.759648 0.686264 -0.045276 -0.918074 0.258784 0.300284
-0.727371 0.307759 -0.839262 -0.912386 -0.353185 -0.206911
-0.566307 0.135603 0.144468 -0.582564 -0.662488 0.470881
0.727371 0.307759 -0.839262 0.912386 -0.353185 -0.206911
0.586093 0.822388 -0.826870 0.740510 0.644869 -0.189179
0.759648 0.686264 -0.045276 0.918074 0.258784 0.300284
-0.320062 1.556646 0.696951 -0.910064 -0.009721 0.414354
-0.434190 1.282949 0.542058 -0.653923 -0.492681 0.574153
-0.000001 1.390747 0.767695 0.000000 -0.923159 0.384419
-0.000000 0.985364 -1.002748 0.000000 0.995794 -0.091625
-0.586093 0.822388 -0.826870 -0.740510 0.644869 -0.189180
-0.437364 0.966699 -0.438548 -0.399053 0.914445 -0.067435
0.566307 0.135603 0.144468 0.582564 -0.662488 0.470881
-0.303546 1.662229 0.794738 -0.656394 0.724480 -0.210420
-0.000001 1.679584 1.053070 -0.000000 0.976875 0.213811
-0.000001 1.718622 0.836591 0.000000 0.883916 0.467645
0.320048 1.556646 0.696959 0.910090 -0.009718 0.414298
0.303544 1.662229 0.794738 0.656397 0.724468 -0.210449
0.363849 0.895090 -1.450494 0.685089 0.616797 -0.387576
-0.363849 0.895090 -1.450494 -0.685089 0.616797 -0.387576
0.437364 0.966699 -0.438548 0.399053 0.914445 -0.067435
-0.189700 1.595364 1.288483 -0.485972 0.513561 0.707168
-0.213309 1.437026 1.281531 -0.566008 -0.516684 0.642396
-0.000001 1.386014 1.053070 -0.000000 -0.997559 0.069824
0.213307 1.437026 1.281531 0.566008 -0.516684 0.642396
0.439522 1.114805 0.061597 0.877744 -0.433559 -0.203941
-0.000000 1.114805 -0.424763 -0.000000 -0.504230 -0.863570
-0.719846 1.556646 0.061597 -0.983584 -0.002108 -0.180440
-0.330064 1.919953 0.618886 -0.492621 0.580039 0.648752
-0.430440 2.119339 0.188187 -0.565261 0.824912 0.000177
0.330064 1.919953 0.618886 0.492624 0.580035 0.648754
0.000000 1.556646 -0.670860 0.000000 0.041794 -0.999126
0.719846 1.556646 0.061597 0.983584 -0.002108 -0.180438
0.434190 1.282949 0.542058 0.653926 -0.492673 0.574155
0.000000 2.062052 -0.298077 -0.000000 0.771418 -0.636328
0.430440 2.119339 0.188187 0.565261 0.824912 0.000177
0.326541 1.435438 0.791183 0.750057 -0.616047 -0.240627
-0.326543 1.435438 0.791183 -0.750054 -0.616062 -0.240598
0.189699 1.595364 1.288483 0.485972 0.513561 0.707168
-0.000000 0.007673 -0.752944 0.000000 -0.999624 -0.027411
3 0 1 2
3 3 4 5
3 6 0 2
3 7 8 9
3 10 11 12
3 13 14 15
3 16 17 18
3 19 20 21
3 6 12 22
3 23 24 25
3 26 25 27
3 14 13 28
3 29 28 7
3 14 19 30
3 30 0 15
3 31 24 23
3 32 33 34
3 1 5 2
3 17 3 1
3 35 4 36
3 17 37 3
3 19 4 30
3 21 5 4
3 6 10 12
3 22 15 6
3 30 4 0
3 38 39 37
3 38 25 40
3 35 41 42
3 42 43 35
3 44 39 45
3 11 9 12
3 27 46 26
3 47 23 16
3 33 32 47
3 18 43 26
3 26 40 25
3 42 26 43
3 1 18 17
3 42 44 45
3 16 37 17
3 45 38 40
3 32 48 31
3 20 10 21
3 26 46 18
3 24 31 48
3 7 28 8
3 47 31 23
3 33 46 34
3 22 13 15
3 48 46 27
3 41 3 37
3 37 44 41
3 15 14 30
3 24 48 27
3 13 8 28
3 6 5 10
3 11 29 9
3 11 20 29
3 35 43 1
3 5 21 10
3 10 20 11
3 19 14 28
3 20 19 29
3 18 47 16
3 46 33 18
3 13 22 8
3 25 38 16
3 45 40 42
3 25 24 27
3 25 16 23
3 29 7 9
3 0 35 1
3 3 36 4
3 6 15 0
3 29 19 28
3 1 3 5
3 35 0 4
3 19 21 4
3 35 36 41
3 42 40 26
3 1 43 18
3 42 41 44
3 16 38 37
3 45 39 38
3 32 34 48
3 47 32 31
3 48 34 46
3 41 36 3
3 37 39 44
3 6 2 5
3 18 33 47
3 8 22 49
3 22 12 49
3 12 9 49
3 9 8 49
